<mxfile host="app.diagrams.net" modified="2022-10-04T19:14:14.808Z" agent="5.0 (Windows NT 10.0; Win64; x64) AppleWebKit/537.36 (KHTML, like Gecko) Chrome/104.0.5112.126 Safari/537.36" etag="Rl-xvaycUQSjCc88s1Wp" version="20.4.0" type="github">
  <diagram id="BzRdHmOQz4b6kzRNyekA" name="Страница 1">
    <mxGraphModel dx="1387" dy="788" grid="1" gridSize="10" guides="1" tooltips="1" connect="1" arrows="1" fold="1" page="1" pageScale="1" pageWidth="2336" pageHeight="1654" math="0" shadow="0">
      <root>
        <mxCell id="0" />
        <mxCell id="1" parent="0" />
        <mxCell id="JQWZ0Ph1uPiR5GWlzoZJ-6" style="edgeStyle=orthogonalEdgeStyle;rounded=0;orthogonalLoop=1;jettySize=auto;html=1;entryX=0.5;entryY=0;entryDx=0;entryDy=0;" edge="1" parent="1" source="JQWZ0Ph1uPiR5GWlzoZJ-1" target="JQWZ0Ph1uPiR5GWlzoZJ-2">
          <mxGeometry relative="1" as="geometry" />
        </mxCell>
        <mxCell id="JQWZ0Ph1uPiR5GWlzoZJ-7" style="edgeStyle=orthogonalEdgeStyle;rounded=0;orthogonalLoop=1;jettySize=auto;html=1;exitX=0.5;exitY=1;exitDx=0;exitDy=0;" edge="1" parent="1" source="JQWZ0Ph1uPiR5GWlzoZJ-1" target="JQWZ0Ph1uPiR5GWlzoZJ-3">
          <mxGeometry relative="1" as="geometry" />
        </mxCell>
        <mxCell id="JQWZ0Ph1uPiR5GWlzoZJ-8" style="edgeStyle=orthogonalEdgeStyle;rounded=0;orthogonalLoop=1;jettySize=auto;html=1;exitX=1;exitY=0.5;exitDx=0;exitDy=0;entryX=0.5;entryY=0;entryDx=0;entryDy=0;" edge="1" parent="1" source="JQWZ0Ph1uPiR5GWlzoZJ-1" target="JQWZ0Ph1uPiR5GWlzoZJ-5">
          <mxGeometry relative="1" as="geometry" />
        </mxCell>
        <mxCell id="JQWZ0Ph1uPiR5GWlzoZJ-9" style="edgeStyle=orthogonalEdgeStyle;rounded=0;orthogonalLoop=1;jettySize=auto;html=1;exitX=0.5;exitY=1;exitDx=0;exitDy=0;entryX=0.5;entryY=0;entryDx=0;entryDy=0;" edge="1" parent="1" source="JQWZ0Ph1uPiR5GWlzoZJ-1" target="JQWZ0Ph1uPiR5GWlzoZJ-4">
          <mxGeometry relative="1" as="geometry" />
        </mxCell>
        <mxCell id="JQWZ0Ph1uPiR5GWlzoZJ-1" value="Главная страница" style="rounded=0;whiteSpace=wrap;html=1;" vertex="1" parent="1">
          <mxGeometry x="580" y="200" width="170" height="40" as="geometry" />
        </mxCell>
        <mxCell id="JQWZ0Ph1uPiR5GWlzoZJ-2" value="О сайте" style="rounded=0;whiteSpace=wrap;html=1;" vertex="1" parent="1">
          <mxGeometry x="280" y="280" width="160" height="40" as="geometry" />
        </mxCell>
        <mxCell id="JQWZ0Ph1uPiR5GWlzoZJ-11" style="edgeStyle=orthogonalEdgeStyle;rounded=0;orthogonalLoop=1;jettySize=auto;html=1;exitX=0.5;exitY=1;exitDx=0;exitDy=0;" edge="1" parent="1" source="JQWZ0Ph1uPiR5GWlzoZJ-3" target="JQWZ0Ph1uPiR5GWlzoZJ-10">
          <mxGeometry relative="1" as="geometry" />
        </mxCell>
        <mxCell id="JQWZ0Ph1uPiR5GWlzoZJ-3" value="Наши проекты" style="rounded=0;whiteSpace=wrap;html=1;" vertex="1" parent="1">
          <mxGeometry x="480" y="280" width="160" height="40" as="geometry" />
        </mxCell>
        <mxCell id="JQWZ0Ph1uPiR5GWlzoZJ-15" style="edgeStyle=orthogonalEdgeStyle;rounded=0;orthogonalLoop=1;jettySize=auto;html=1;exitX=0.5;exitY=1;exitDx=0;exitDy=0;entryX=0.5;entryY=0;entryDx=0;entryDy=0;" edge="1" parent="1" source="JQWZ0Ph1uPiR5GWlzoZJ-4" target="JQWZ0Ph1uPiR5GWlzoZJ-14">
          <mxGeometry relative="1" as="geometry" />
        </mxCell>
        <mxCell id="JQWZ0Ph1uPiR5GWlzoZJ-4" value="Профиль" style="rounded=0;whiteSpace=wrap;html=1;" vertex="1" parent="1">
          <mxGeometry x="680" y="280" width="160" height="40" as="geometry" />
        </mxCell>
        <mxCell id="JQWZ0Ph1uPiR5GWlzoZJ-5" value="Авторизация" style="rounded=0;whiteSpace=wrap;html=1;" vertex="1" parent="1">
          <mxGeometry x="880" y="280" width="160" height="40" as="geometry" />
        </mxCell>
        <mxCell id="JQWZ0Ph1uPiR5GWlzoZJ-10" value="Обеспечение безопасности" style="rounded=0;whiteSpace=wrap;html=1;dashed=1;" vertex="1" parent="1">
          <mxGeometry x="480" y="360" width="160" height="40" as="geometry" />
        </mxCell>
        <mxCell id="JQWZ0Ph1uPiR5GWlzoZJ-14" value="Страница редактора" style="rounded=0;whiteSpace=wrap;html=1;dashed=1;" vertex="1" parent="1">
          <mxGeometry x="680" y="360" width="160" height="40" as="geometry" />
        </mxCell>
      </root>
    </mxGraphModel>
  </diagram>
</mxfile>
